<?xml version="1.0" encoding="UTF-8" standalone="no"?>
<svg
   xmlns:dc="http://purl.org/dc/elements/1.1/"
   xmlns:cc="http://creativecommons.org/ns#"
   xmlns:rdf="http://www.w3.org/1999/02/22-rdf-syntax-ns#"
   xmlns:svg="http://www.w3.org/2000/svg"
   xmlns="http://www.w3.org/2000/svg"
   xmlns:xlink="http://www.w3.org/1999/xlink"
   xmlns:sodipodi="http://sodipodi.sourceforge.net/DTD/sodipodi-0.dtd"
   xmlns:inkscape="http://www.inkscape.org/namespaces/inkscape"
   width="200"
   height="200"
   viewBox="0 0 52.916665 52.916668"
   version="1.1"
   id="svg8"
   inkscape:version="1.0.1 (3bc2e813f5, 2020-09-07)"
   sodipodi:docname="nebulalogo.svg">
  <defs
     id="defs2">
    <linearGradient
       inkscape:collect="always"
       xlink:href="#linearGradient892"
       id="linearGradient894"
       x1="40.72686"
       y1="98.429008"
       x2="58.544735"
       y2="108.42153"
       gradientUnits="userSpaceOnUse" />
    <linearGradient
       inkscape:collect="always"
       id="linearGradient892">
      <stop
         style="stop-color:#000000;stop-opacity:1;"
         offset="0"
         id="stop888" />
      <stop
         style="stop-color:#000000;stop-opacity:0;"
         offset="1"
         id="stop890" />
    </linearGradient>
    <linearGradient
       inkscape:collect="always"
       xlink:href="#linearGradient892"
       id="linearGradient886"
       x1="83.330399"
       y1="127.72307"
       x2="64.245422"
       y2="117.45298"
       gradientUnits="userSpaceOnUse" />
  </defs>
  <sodipodi:namedview
     id="base"
     pagecolor="#ffffff"
     bordercolor="#666666"
     borderopacity="1.0"
     inkscape:pageopacity="0.0"
     inkscape:pageshadow="2"
     inkscape:zoom="2.6751938"
     inkscape:cx="143.51702"
     inkscape:cy="111.74045"
     inkscape:document-units="mm"
     inkscape:current-layer="layer1"
     inkscape:document-rotation="0"
     showgrid="false"
     units="px"
     inkscape:window-width="1024"
     inkscape:window-height="705"
     inkscape:window-x="-8"
     inkscape:window-y="-8"
     inkscape:window-maximized="1" />
  <metadata
     id="metadata5">
    <rdf:RDF>
      <cc:Work
         rdf:about="">
        <dc:format>image/svg+xml</dc:format>
        <dc:type
           rdf:resource="http://purl.org/dc/dcmitype/StillImage" />
        <dc:title></dc:title>
      </cc:Work>
    </rdf:RDF>
  </metadata>
  <g
     inkscape:label="Layer 1"
     inkscape:groupmode="layer"
     id="layer1">
    <g
       id="g65"
       transform="matrix(1.4949277,0,0,1.4949277,-2.2700294,-2.6264998)"
       style="stroke-width:0.668929">
      <path
         id="path1042"
         style="fill:#2ad4ff;stroke-width:0.334463;stroke-linecap:round;paint-order:stroke markers fill;stop-color:#000000"
         d="m 1.6642432,20.210191 a 2.9316351,17.585817 89.527536 0 0 17.7112718,2.768577 2.9316351,17.585817 89.527536 0 0 17.458289,-3.092707 2.9316351,17.585817 89.527536 0 0 -17.711269,-2.76858 2.9316351,17.585817 89.527536 0 0 -17.4582918,3.09271 z m 1.6336217,-0.01506 A 2.7874514,15.952188 89.533196 0 1 19.128755,17.261617 2.7874514,15.952188 89.533196 0 1 35.200305,19.901114 2.7874514,15.952188 89.533196 0 1 19.369292,22.834645 2.7874514,15.952188 89.533196 0 1 3.2978649,20.195131 Z" />
      <circle
         style="fill:#1a1a1a;stroke-width:0.334463;stroke-linecap:round;paint-order:stroke markers fill;stop-color:#000000"
         id="path833"
         cx="19.249023"
         cy="19.576817"
         r="11.426271" />
      <g
         id="g913"
         transform="matrix(0.25171329,0,0,0.25171329,3.6178644,-8.8201631)"
         style="stroke-width:2.6575">
        <g
           aria-label="N"
           id="text846"
           style="font-style:normal;font-variant:normal;font-weight:normal;font-stretch:normal;font-size:53.0253px;line-height:1.25;font-family:Chopsic;-inkscape-font-specification:'Chopsic, Normal';font-variant-ligatures:normal;font-variant-caps:normal;font-variant-numeric:normal;font-variant-east-asian:normal;letter-spacing:0px;word-spacing:0px;fill:#2ad4ff;stroke-width:0.703131">
          <path
             d="M 72.455566,115.84406 V 90.807208 L 82.81207,101.16371 v 29.77495 c -3.491082,1.48505 -6.795363,1.47569 -9.916352,0 L 51.742559,109.7855 v 25.03685 L 41.386055,124.46584 V 94.690897 c 3.990069,-1.82565 7.021622,-1.095255 9.916352,0 z"
             style="font-style:normal;font-variant:normal;font-weight:normal;font-stretch:normal;font-size:53.0253px;font-family:Chopsic;-inkscape-font-specification:'Chopsic, Normal';font-variant-ligatures:normal;font-variant-caps:normal;font-variant-numeric:normal;font-variant-east-asian:normal;fill:#00ccff;stroke-width:0.703131"
             id="path903"
             sodipodi:nodetypes="ccccccccccc" />
        </g>
        <rect
           style="fill:url(#linearGradient894);fill-opacity:1;stroke:none;stroke-width:1.32875;stroke-linecap:round;paint-order:stroke markers fill;stop-color:#000000"
           id="rect53"
           width="10.892579"
           height="29.829901"
           x="51.815708"
           y="93.229012"
           ry="0.47237673" />
        <rect
           style="fill:url(#linearGradient886);fill-opacity:1;stroke:none;stroke-width:1.32875;stroke-linecap:round;paint-order:stroke markers fill;stop-color:#000000"
           id="rect55"
           width="10.615008"
           height="27.609341"
           x="61.957508"
           y="103.64831"
           ry="0.43721268" />
      </g>
      <path
         id="path848"
         style="fill:#2ad4ff;stroke-width:0.334463;stroke-linecap:round;paint-order:stroke markers fill;stop-color:#000000"
         d="m 19.459371,37.161597 a 17.585817,2.9316351 89.527536 0 0 2.768577,-17.711272 17.585817,2.9316351 89.527536 0 0 -3.092707,-17.458289 17.585817,2.9316351 89.527536 0 0 -2.76858,17.711269 17.585817,2.9316351 89.527536 0 0 3.09271,17.458292 z m -0.01506,-1.633622 A 15.952188,2.7874514 89.533196 0 1 16.510797,19.697085 15.952188,2.7874514 89.533196 0 1 19.150294,3.6255345 15.952188,2.7874514 89.533196 0 1 22.083825,19.456548 15.952188,2.7874514 89.533196 0 1 19.444311,35.527975 Z" />
    </g>
  </g>
</svg>
